<svg width="22" height="22" fill="none" xmlns="http://www.w3.org/2000/svg"><path d="M19.25.5a2.17 2.17 0 011.594.656c.437.438.656.969.656 1.594v16.5a2.17 2.17 0 01-.656 1.594 2.17 2.17 0 01-1.594.656h-6.422v-7.125h2.719L16.062 11h-3.234V8.797c0-1.188.625-1.781 1.875-1.781h1.453v-2.86a14.647 14.647 0 00-2.578-.234c-.906 0-1.687.172-2.344.515-.625.344-1.125.86-1.5 1.547-.375.688-.562 1.5-.562 2.438V11H6.219v3.375h2.953V21.5H2.75a2.17 2.17 0 01-1.594-.656A2.17 2.17 0 01.5 19.25V2.75c0-.625.219-1.156.656-1.594A2.17 2.17 0 012.75.5h16.5z" fill="url(#paint0_linear)"/><defs><linearGradient id="paint0_linear" x1="11" y1="1" x2="11" y2="25" gradientUnits="userSpaceOnUse"><stop stop-color="#BC9CFF"/><stop offset="1" stop-color="#8BA4F9"/></linearGradient></defs></svg>